{
  "extensionsUsed": [
    "KHR_materials_transmission",
    "KHR_materials_clearcoat",
    "KHR_materials_ior",
    "KHR_materials_specular",
    "KHR_materials_emissive_strength",
    "KHR_texture_transform"
  ],
  "accessors": [
    {
      "bufferView": 0,
      "componentType": 5126,
      "count": 226,
      "type": "VEC3",
      "max": [
        12.0,
        0.0,
        12.0
      ],
      "min": [
        -12.0,
        0.0,
        -12.0
      ]
    },
    {
      "bufferView": 1,
      "componentType": 5125,
      "count": 684,
      "type": "SCALAR",
      "max": [
        225.0
      ],
      "min": [
        0.0
      ]
    },
    {
      "bufferView": 2,
      "componentType": 5126,
      "count": 226,
      "type": "VEC3",
      "max": [
        0.0,
        -1.0,
        0.0
      ],
      "min": [
        0.0,
        -1.0,
        0.0
      ]
    },
    {
      "bufferView": 3,
      "componentType": 5126,
      "count": 226,
      "type": "VEC2",
      "max": [
        0.32152548,
        0.6504728
      ],
      "min": [
        0.00318343,
        0.3321308
      ]
    },
    {
      "bufferView": 4,
      "componentType": 5126,
      "count": 226,
      "type": "VEC3",
      "max": [
        12.0,
        3.0,
        12.0
      ],
      "min": [
        -12.0,
        3.0,
        -12.0
      ]
    },
    {
      "bufferView": 5,
      "componentType": 5125,
      "count": 684,
      "type": "SCALAR",
      "max": [
        225.0
      ],
      "min": [
        0.0
      ]
    },
    {
      "bufferView": 6,
      "componentType": 5126,
      "count": 226,
      "type": "VEC3",
      "max": [
        1.3877788E-17,
        1.0,
        0.0
      ],
      "min": [
        -1.3877788E-17,
        1.0,
        0.0
      ]
    },
    {
      "bufferView": 7,
      "componentType": 5126,
      "count": 226,
      "type": "VEC2",
      "max": [
        0.7231038,
        0.32152545
      ],
      "min": [
        0.40619788,
        0.0031834207
      ]
    },
    {
      "bufferView": 8,
      "componentType": 5126,
      "count": 258,
      "type": "VEC3",
      "max": [
        12.0,
        3.0,
        12.0
      ],
      "min": [
        -12.0,
        0.0,
        -12.0
      ]
    },
    {
      "bufferView": 9,
      "componentType": 5125,
      "count": 768,
      "type": "SCALAR",
      "max": [
        257.0
      ],
      "min": [
        0.0
      ]
    },
    {
      "bufferView": 10,
      "componentType": 5126,
      "count": 258,
      "type": "VEC3",
      "max": [
        1.0,
        1.1244006E-15,
        1.0
      ],
      "min": [
        -1.0,
        -1.0718803E-15,
        -1.0
      ]
    },
    {
      "bufferView": 11,
      "componentType": 5126,
      "count": 258,
      "type": "VEC2",
      "max": [
        0.40156397,
        0.99853516
      ],
      "min": [
        0.36323607,
        0.0
      ]
    },
    {
      "bufferView": 12,
      "componentType": 5126,
      "count": 4,
      "type": "VEC3",
      "max": [
        5.5139894,
        3.0,
        5.5139894
      ],
      "min": [
        -8.342417,
        0.0,
        -8.342417
      ]
    },
    {
      "bufferView": 13,
      "componentType": 5125,
      "count": 6,
      "type": "SCALAR",
      "max": [
        3.0
      ],
      "min": [
        0.0
      ]
    },
    {
      "bufferView": 14,
      "componentType": 5126,
      "count": 4,
      "type": "VEC3",
      "max": [
        -0.70710677,
        2.0934566E-16,
        -0.70710677
      ],
      "min": [
        -0.70710677,
        -8.3738265E-16,
        -0.70710677
      ]
    },
    {
      "bufferView": 15,
      "componentType": 5126,
      "count": 4,
      "type": "VEC2",
      "max": [
        0.2599252,
        0.039792757
      ],
      "min": [
        0.0,
        0.0
      ]
    },
    {
      "bufferView": 16,
      "componentType": 5126,
      "count": 98,
      "type": "VEC3",
      "max": [
        5.5139894,
        3.0,
        5.5139894
      ],
      "min": [
        -10.0,
        0.0,
        -10.0
      ]
    },
    {
      "bufferView": 17,
      "componentType": 5125,
      "count": 288,
      "type": "SCALAR",
      "max": [
        97.0
      ],
      "min": [
        0.0
      ]
    },
    {
      "bufferView": 18,
      "componentType": 5126,
      "count": 98,
      "type": "VEC3",
      "max": [
        1.0,
        2.2844119E-16,
        1.0
      ],
      "min": [
        -0.551399,
        -2.3757853E-16,
        -0.551399
      ]
    },
    {
      "bufferView": 19,
      "componentType": 5126,
      "count": 98,
      "type": "VEC2",
      "max": [
        0.36177123,
        0.20426644
      ],
      "min": [
        0.0,
        0.16447368
      ]
    },
    {
      "bufferView": 20,
      "componentType": 5126,
      "count": 98,
      "type": "VEC3",
      "max": [
        10.0,
        3.0,
        10.0
      ],
      "min": [
        -5.5139894,
        0.0,
        -5.5139894
      ]
    },
    {
      "bufferView": 21,
      "componentType": 5125,
      "count": 288,
      "type": "SCALAR",
      "max": [
        97.0
      ],
      "min": [
        0.0
      ]
    },
    {
      "bufferView": 22,
      "componentType": 5126,
      "count": 98,
      "type": "VEC3",
      "max": [
        0.551399,
        1.4776813E-15,
        0.551399
      ],
      "min": [
        -1.0,
        -5.7114346E-16,
        -1.0
      ]
    },
    {
      "bufferView": 23,
      "componentType": 5126,
      "count": 98,
      "type": "VEC2",
      "max": [
        0.36177123,
        0.2865033
      ],
      "min": [
        0.0,
        0.24671052
      ]
    },
    {
      "bufferView": 24,
      "componentType": 5126,
      "count": 4,
      "type": "VEC3",
      "max": [
        8.342417,
        3.0,
        8.342417
      ],
      "min": [
        -5.5139894,
        0.0,
        -5.5139894
      ]
    },
    {
      "bufferView": 25,
      "componentType": 5125,
      "count": 6,
      "type": "SCALAR",
      "max": [
        3.0
      ],
      "min": [
        0.0
      ]
    },
    {
      "bufferView": 26,
      "componentType": 5126,
      "count": 4,
      "type": "VEC3",
      "max": [
        0.70710677,
        -2.0934566E-16,
        0.70710677
      ],
      "min": [
        0.70710677,
        -2.0934566E-16,
        0.70710677
      ]
    },
    {
      "bufferView": 27,
      "componentType": 5126,
      "count": 4,
      "type": "VEC2",
      "max": [
        0.2599252,
        0.1220296
      ],
      "min": [
        0.0,
        0.08223684
      ]
    }
  ],
  "asset": {
    "version": "2.0"
  },
  "buffers": [
    {
      "uri": "data:application/octet-stream;base64,",
      "byteLength": 2712
    },
    {
      "uri": "data:application/octet-stream;base64,",
      "byteLength": 2736
    },
    {
      "uri": "data:application/octet-stream;base64,",
      "byteLength": 2712
    },
    {
      "uri": "data:application/octet-stream;base64,",
      "byteLength": 1808
    },
    {
      "uri": "data:application/octet-stream;base64,",
      "byteLength": 2712
    },
    {
      "uri": "data:application/octet-stream;base64,",
      "byteLength": 2736
    },
    {
      "uri": "data:application/octet-stream;base64,",
      "byteLength": 2712
    },
    {
      "uri": "data:application/octet-stream;base64,",
      "byteLength": 1808
    },
    {
      "uri": "data:application/octet-stream;base64,",
      "byteLength": 3096
    },
    {
      "uri": "data:application/octet-stream;base64,",
      "byteLength": 3072
    },
    {
      "uri": "data:application/octet-stream;base64,",
      "byteLength": 3096
    },
    {
      "uri": "data:application/octet-stream;base64,",
      "byteLength": 2064
    },
    {
      "uri": "data:application/octet-stream;base64,",
      "byteLength": 48
    },
    {
      "uri": "data:application/octet-stream;base64,",
      "byteLength": 24
    },
    {
      "uri": "data:application/octet-stream;base64,",
      "byteLength": 48
    },
    {
      "uri": "data:application/octet-stream;base64,",
      "byteLength": 32
    },
    {
      "uri": "data:application/octet-stream;base64,",
      "byteLength": 1176
    },
    {
      "uri": "data:application/octet-stream;base64,",
      "byteLength": 1152
    },
    {
      "uri": "data:application/octet-stream;base64,",
      "byteLength": 1176
    },
    {
      "uri": "data:application/octet-stream;base64,",
      "byteLength": 784
    },
    {
      "uri": "data:application/octet-stream;base64,",
      "byteLength": 1176
    },
    {
      "uri": "data:application/octet-stream;base64,",
      "byteLength": 1152
    },
    {
      "uri": "data:application/octet-stream;base64,",
      "byteLength": 1176
    },
    {
      "uri": "data:application/octet-stream;base64,",
      "byteLength": 784
    },
    {
      "uri": "data:application/octet-stream;base64,",
      "byteLength": 48
    },
    {
      "uri": "data:application/octet-stream;base64,",
      "byteLength": 24
    },
    {
      "uri": "data:application/octet-stream;base64,",
      "byteLength": 48
    },
    {
      "uri": "data:application/octet-stream;base64,",
      "byteLength": 32
    }
  ],
  "bufferViews": [
    {
      "buffer": 0,
      "byteLength": 2712,
      "target": 34962
    },
    {
      "buffer": 1,
      "byteLength": 2736,
      "target": 34963
    },
    {
      "buffer": 2,
      "byteLength": 2712,
      "target": 34962
    },
    {
      "buffer": 3,
      "byteLength": 1808,
      "target": 34962
    },
    {
      "buffer": 4,
      "byteLength": 2712,
      "target": 34962
    },
    {
      "buffer": 5,
      "byteLength": 2736,
      "target": 34963
    },
    {
      "buffer": 6,
      "byteLength": 2712,
      "target": 34962
    },
    {
      "buffer": 7,
      "byteLength": 1808,
      "target": 34962
    },
    {
      "buffer": 8,
      "byteLength": 3096,
      "target": 34962
    },
    {
      "buffer": 9,
      "byteLength": 3072,
      "target": 34963
    },
    {
      "buffer": 10,
      "byteLength": 3096,
      "target": 34962
    },
    {
      "buffer": 11,
      "byteLength": 2064,
      "target": 34962
    },
    {
      "buffer": 12,
      "byteLength": 48,
      "target": 34962
    },
    {
      "buffer": 13,
      "byteLength": 24,
      "target": 34963
    },
    {
      "buffer": 14,
      "byteLength": 48,
      "target": 34962
    },
    {
      "buffer": 15,
      "byteLength": 32,
      "target": 34962
    },
    {
      "buffer": 16,
      "byteLength": 1176,
      "target": 34962
    },
    {
      "buffer": 17,
      "byteLength": 1152,
      "target": 34963
    },
    {
      "buffer": 18,
      "byteLength": 1176,
      "target": 34962
    },
    {
      "buffer": 19,
      "byteLength": 784,
      "target": 34962
    },
    {
      "buffer": 20,
      "byteLength": 1176,
      "target": 34962
    },
    {
      "buffer": 21,
      "byteLength": 1152,
      "target": 34963
    },
    {
      "buffer": 22,
      "byteLength": 1176,
      "target": 34962
    },
    {
      "buffer": 23,
      "byteLength": 784,
      "target": 34962
    },
    {
      "buffer": 24,
      "byteLength": 48,
      "target": 34962
    },
    {
      "buffer": 25,
      "byteLength": 24,
      "target": 34963
    },
    {
      "buffer": 26,
      "byteLength": 48,
      "target": 34962
    },
    {
      "buffer": 27,
      "byteLength": 32,
      "target": 34962
    }
  ],
  "materials": [
    {
      "pbrMetallicRoughness": {
        "baseColorFactor": [
          0.0,
          0.0,
          0.0,
          1.0
        ]
      }
    }
  ],
  "meshes": [
    {
      "primitives": [
        {
          "attributes": {
            "POSITION": 0,
            "NORMAL": 2,
            "TEXCOORD_0": 3
          },
          "indices": 1,
          "material": 0
        },
        {
          "attributes": {
            "POSITION": 4,
            "NORMAL": 6,
            "TEXCOORD_0": 7
          },
          "indices": 5,
          "material": 0
        },
        {
          "attributes": {
            "POSITION": 8,
            "NORMAL": 10,
            "TEXCOORD_0": 11
          },
          "indices": 9,
          "material": 0
        },
        {
          "attributes": {
            "POSITION": 12,
            "NORMAL": 14,
            "TEXCOORD_0": 15
          },
          "indices": 13,
          "material": 0
        },
        {
          "attributes": {
            "POSITION": 16,
            "NORMAL": 18,
            "TEXCOORD_0": 19
          },
          "indices": 17,
          "material": 0
        },
        {
          "attributes": {
            "POSITION": 20,
            "NORMAL": 22,
            "TEXCOORD_0": 23
          },
          "indices": 21,
          "material": 0
        },
        {
          "attributes": {
            "POSITION": 24,
            "NORMAL": 26,
            "TEXCOORD_0": 27
          },
          "indices": 25,
          "material": 0
        }
      ]
    }
  ],
  "nodes": [
    {
      "mesh": 0
    }
  ],
  "samplers": [
    {
      "magFilter": 9729,
      "minFilter": 9729
    }
  ],
  "scene": 0,
  "scenes": [
    {
      "nodes": [
        0
      ],
      "extensions": {}
    }
  ],
  "extensions": {}
}